<?xml version="1.0" encoding="UTF-8"?>
<svg xmlns="http://www.w3.org/2000/svg" xmlns:xlink="http://www.w3.org/1999/xlink" width="256px" height="228px" viewBox="0 0 64 57" version="1.1">
<g id="surface1">
<path style=" stroke:none;fill-rule:nonzero;fill:rgb(0%,84.705882%,100%);fill-opacity:1;" d="M 52.621094 18.457031 C 51.941406 18.222656 51.253906 18.003906 50.5625 17.808594 C 50.675781 17.332031 50.785156 16.863281 50.878906 16.402344 C 52.4375 8.832031 51.417969 2.734375 47.9375 0.722656 C 44.597656 -1.199219 39.136719 0.808594 33.625 5.605469 C 33.078125 6.078125 32.546875 6.566406 32.03125 7.066406 C 31.683594 6.734375 31.328125 6.410156 30.96875 6.089844 C 25.191406 0.957031 19.398438 -1.207031 15.917969 0.808594 C 12.582031 2.738281 11.59375 8.472656 13 15.648438 C 13.136719 16.359375 13.296875 17.066406 13.472656 17.765625 C 12.652344 18 11.859375 18.246094 11.101562 18.511719 C 4.328125 20.875 0 24.578125 0 28.417969 C 0 32.382812 4.644531 36.363281 11.703125 38.773438 C 12.273438 38.96875 12.851562 39.148438 13.433594 39.316406 C 13.246094 40.070312 13.078125 40.832031 12.929688 41.597656 C 11.59375 48.648438 12.636719 54.246094 15.964844 56.164062 C 19.398438 58.148438 25.167969 56.109375 30.78125 51.203125 C 31.238281 50.804688 31.683594 50.394531 32.117188 49.972656 C 32.679688 50.511719 33.257812 51.039062 33.847656 51.550781 C 39.289062 56.230469 44.660156 58.121094 47.984375 56.195312 C 51.414062 54.210938 52.53125 48.195312 51.082031 40.878906 C 50.96875 40.304688 50.839844 39.734375 50.699219 39.167969 C 51.105469 39.050781 51.5 38.925781 51.890625 38.796875 C 59.226562 36.367188 64 32.4375 64 28.417969 C 64 24.5625 59.53125 20.835938 52.621094 18.457031 Z M 51.03125 36.203125 C 50.679688 36.316406 50.320312 36.429688 49.953125 36.539062 C 49.144531 33.972656 48.050781 31.246094 46.714844 28.429688 C 47.992188 25.679688 49.042969 22.988281 49.828125 20.441406 C 50.484375 20.628906 51.117188 20.832031 51.730469 21.039062 C 57.652344 23.078125 61.265625 26.09375 61.265625 28.417969 C 61.265625 30.890625 57.363281 34.101562 51.03125 36.203125 Z M 48.402344 41.410156 C 49.042969 44.644531 49.132812 47.570312 48.707031 49.855469 C 48.328125 51.910156 47.5625 53.28125 46.613281 53.832031 C 44.597656 54.996094 40.28125 53.480469 35.632812 49.476562 C 35.082031 49.003906 34.542969 48.515625 34.023438 48.011719 C 35.824219 46.039062 37.628906 43.746094 39.386719 41.199219 C 42.480469 40.925781 45.402344 40.476562 48.054688 39.863281 C 48.183594 40.390625 48.300781 40.90625 48.402344 41.410156 Z M 21.820312 53.628906 C 19.847656 54.324219 18.277344 54.34375 17.332031 53.796875 C 15.3125 52.632812 14.472656 48.136719 15.617188 42.109375 C 15.753906 41.398438 15.910156 40.6875 16.085938 39.984375 C 18.707031 40.566406 21.609375 40.980469 24.707031 41.234375 C 26.480469 43.726562 28.335938 46.015625 30.203125 48.019531 C 29.804688 48.40625 29.398438 48.78125 28.984375 49.144531 C 26.5 51.3125 24.011719 52.855469 21.820312 53.628906 Z M 12.585938 36.1875 C 9.464844 35.121094 6.890625 33.734375 5.121094 32.222656 C 3.535156 30.863281 2.734375 29.511719 2.734375 28.417969 C 2.734375 26.085938 6.207031 23.113281 12.003906 21.09375 C 12.707031 20.847656 13.441406 20.617188 14.207031 20.402344 C 15.007812 23.003906 16.058594 25.730469 17.324219 28.484375 C 16.042969 31.277344 14.976562 34.046875 14.167969 36.679688 C 13.636719 36.53125 13.109375 36.363281 12.585938 36.1875 Z M 15.683594 15.121094 C 14.480469 8.976562 15.277344 4.339844 17.289062 3.175781 C 19.429688 1.933594 24.164062 3.703125 29.152344 8.132812 C 29.480469 8.421875 29.800781 8.71875 30.113281 9.019531 C 28.253906 11.015625 26.417969 13.289062 24.664062 15.765625 C 21.652344 16.046875 18.769531 16.492188 16.121094 17.09375 C 15.957031 16.441406 15.8125 15.78125 15.683594 15.121094 Z M 43.289062 21.9375 C 42.664062 20.859375 42.015625 19.789062 41.34375 18.738281 C 43.382812 18.996094 45.339844 19.339844 47.179688 19.757812 C 46.625 21.527344 45.9375 23.375 45.128906 25.269531 C 44.539062 24.148438 43.925781 23.035156 43.289062 21.9375 Z M 32.03125 10.972656 C 33.292969 12.339844 34.554688 13.863281 35.796875 15.519531 C 33.277344 15.402344 30.753906 15.402344 28.234375 15.519531 C 29.476562 13.878906 30.75 12.355469 32.03125 10.972656 Z M 20.699219 21.957031 C 20.074219 23.046875 19.46875 24.148438 18.894531 25.265625 C 18.097656 23.378906 17.417969 21.523438 16.859375 19.730469 C 18.6875 19.320312 20.632812 18.988281 22.664062 18.734375 C 21.984375 19.792969 21.328125 20.867188 20.699219 21.957031 Z M 22.722656 38.296875 C 20.625 38.0625 18.648438 37.746094 16.824219 37.347656 C 17.386719 35.523438 18.082031 33.625 18.898438 31.695312 C 19.476562 32.816406 20.082031 33.917969 20.710938 35.007812 C 21.359375 36.128906 22.03125 37.226562 22.722656 38.296875 Z M 32.105469 46.054688 C 30.808594 44.65625 29.519531 43.109375 28.253906 41.445312 C 29.480469 41.492188 30.730469 41.515625 32 41.515625 C 33.304688 41.515625 34.59375 41.488281 35.863281 41.429688 C 34.617188 43.125 33.359375 44.675781 32.105469 46.054688 Z M 45.15625 31.597656 C 46.011719 33.546875 46.730469 35.433594 47.304688 37.230469 C 45.449219 37.652344 43.445312 37.992188 41.335938 38.246094 C 42.011719 37.175781 42.667969 36.089844 43.300781 34.988281 C 43.941406 33.875 44.5625 32.742188 45.15625 31.597656 Z M 40.929688 33.625 C 39.960938 35.308594 38.9375 36.960938 37.859375 38.578125 C 35.910156 38.714844 33.957031 38.785156 32 38.785156 C 30.007812 38.785156 28.070312 38.722656 26.207031 38.601562 C 25.101562 36.988281 24.058594 35.332031 23.078125 33.640625 C 22.101562 31.957031 21.191406 30.234375 20.347656 28.480469 C 21.1875 26.730469 22.097656 25.007812 23.070312 23.324219 C 24.039062 21.636719 25.074219 19.988281 26.171875 18.382812 C 28.074219 18.238281 30.027344 18.164062 32 18.164062 C 33.980469 18.164062 35.9375 18.238281 37.839844 18.382812 C 38.925781 19.988281 39.953125 21.632812 40.921875 23.308594 C 41.898438 24.988281 42.816406 26.703125 43.679688 28.445312 C 42.828125 30.203125 41.910156 31.929688 40.929688 33.625 Z M 46.570312 3.09375 C 48.714844 4.328125 49.546875 9.3125 48.203125 15.847656 C 48.117188 16.265625 48.019531 16.691406 47.914062 17.121094 C 45.257812 16.507812 42.375 16.054688 39.355469 15.769531 C 37.597656 13.265625 35.777344 10.988281 33.945312 9.019531 C 34.425781 8.554688 34.917969 8.105469 35.417969 7.667969 C 40.144531 3.554688 44.558594 1.933594 46.570312 3.09375 Z M 32 22.703125 C 35.15625 22.703125 37.714844 25.261719 37.714844 28.417969 C 37.714844 31.574219 35.15625 34.132812 32 34.132812 C 28.84375 34.132812 26.285156 31.574219 26.285156 28.417969 C 26.285156 25.261719 28.84375 22.703125 32 22.703125 Z M 32 22.703125 "/>
</g>
</svg>
